<?xml version="1.0" encoding="UTF-8" standalone="no"?>
<svg xmlns:xlink="http://www.w3.org/1999/xlink" height="7.6px" width="6.2px" xmlns="http://www.w3.org/2000/svg">
  <g transform="matrix(1.0, 0.0, 0.0, 1.0, 0.0, 0.0)">
    <path d="M5.25 0.75 Q6.0 1.4 6.15 2.3 L6.15 2.55 6.15 2.85 Q6.05 3.7 5.35 4.3 L6.1 7.35 6.2 7.6 0.0 7.6 0.05 7.35 0.85 4.3 Q0.05 3.6 0.05 2.65 L0.05 2.55 Q0.05 1.5 0.95 0.75 L1.05 0.65 Q1.9 0.0 3.1 0.0 4.35 0.0 5.25 0.75 M5.85 2.8 L5.85 2.3 Q5.75 1.55 5.05 0.95 4.25 0.3 3.1 0.3 L2.0 0.5 2.15 0.5 Q3.25 0.5 4.0 1.1 4.55 1.55 4.7 2.1 L4.75 2.4 4.75 2.45 4.8 2.65 4.75 2.9 4.5 3.6 4.05 4.15 4.8 6.95 0.5 6.95 0.4 7.3 5.75 7.3 5.0 4.35 5.0 4.25 5.05 4.15 Q5.75 3.55 5.85 2.8 M4.5 2.15 L3.85 1.25 Q3.15 0.65 2.15 0.65 L1.45 0.75 1.25 0.9 1.2 0.9 1.15 0.95 Q0.35 1.6 0.35 2.55 L0.35 2.6 Q0.35 3.5 1.15 4.15 L1.2 4.2 1.2 4.3 0.55 6.75 4.55 6.75 3.85 4.15 3.85 4.1 3.85 4.05 4.35 3.5 4.55 2.85 4.55 2.45 4.5 2.15" fill="#000000" fill-rule="evenodd" stroke="none"/>
    <path d="M5.85 2.8 Q5.75 3.55 5.05 4.15 L5.0 4.25 5.0 4.35 5.75 7.3 0.4 7.3 0.5 6.95 4.8 6.95 4.05 4.15 4.5 3.6 4.75 2.9 4.8 2.65 4.75 2.45 4.75 2.4 4.7 2.1 Q4.55 1.55 4.0 1.1 3.25 0.5 2.15 0.5 L2.0 0.5 3.1 0.3 Q4.25 0.3 5.05 0.95 5.75 1.55 5.85 2.3 L5.85 2.8" fill="#515151" fill-rule="evenodd" stroke="none"/>
    <path d="M4.5 2.15 L4.55 2.45 4.55 2.85 4.35 3.5 3.85 4.05 3.85 4.1 3.85 4.15 4.55 6.75 0.55 6.75 1.2 4.3 1.2 4.2 1.15 4.15 Q0.35 3.5 0.35 2.6 L0.35 2.55 Q0.35 1.6 1.15 0.95 L1.2 0.9 1.25 0.9 1.45 0.75 2.15 0.65 Q3.15 0.65 3.85 1.25 L4.5 2.15" fill="#2b2b2b" fill-rule="evenodd" stroke="none"/>
  </g>
</svg>
