<?xml version="1.0" encoding="UTF-8" standalone="no"?>
<svg xmlns:xlink="http://www.w3.org/1999/xlink" height="19.55px" width="236.9px" xmlns="http://www.w3.org/2000/svg">
  <g transform="matrix(1.0, 0.0, 0.0, 1.0, 0.0, 0.0)">
    <path d="M233.45 0.0 L236.25 0.0 Q236.9 1.1 236.9 2.25 L236.9 17.2 Q236.9 18.45 236.2 19.55 L233.35 19.55 Q234.15 18.45 234.15 17.2 L234.15 2.25 Q234.15 1.05 233.45 0.0" fill="url(#gradient0)" fill-rule="evenodd" stroke="none"/>
    <path d="M233.35 19.55 L230.45 19.55 Q231.35 18.45 231.4 17.2 L231.4 2.25 Q231.35 1.05 230.55 0.0 L233.45 0.0 Q234.15 1.05 234.15 2.25 L234.15 17.2 Q234.15 18.45 233.35 19.55" fill="url(#gradient1)" fill-rule="evenodd" stroke="none"/>
    <path d="M230.45 19.55 L227.6 19.55 Q228.65 18.45 228.65 17.2 L228.65 2.25 Q228.65 1.05 227.7 0.0 L230.55 0.0 Q231.35 1.05 231.4 2.25 L231.4 17.2 Q231.35 18.45 230.45 19.55" fill="url(#gradient2)" fill-rule="evenodd" stroke="none"/>
    <path d="M227.6 19.55 L224.65 19.55 Q225.9 18.45 225.9 17.2 L225.9 2.25 Q225.9 1.05 224.75 0.0 L227.7 0.0 Q228.65 1.05 228.65 2.25 L228.65 17.2 Q228.65 18.45 227.6 19.55" fill="url(#gradient3)" fill-rule="evenodd" stroke="none"/>
    <path d="M224.65 19.55 L221.55 19.55 Q223.1 18.5 223.15 17.2 L223.15 2.25 Q223.1 1.0 221.7 0.0 L224.75 0.0 Q225.9 1.05 225.9 2.25 L225.9 17.2 Q225.9 18.45 224.65 19.55" fill="url(#gradient4)" fill-rule="evenodd" stroke="none"/>
    <path d="M221.55 19.55 L218.3 19.55 Q220.35 18.55 220.4 17.2 L220.4 2.25 Q220.35 1.0 218.5 0.0 L221.7 0.0 Q223.1 1.0 223.15 2.25 L223.15 17.2 Q223.1 18.5 221.55 19.55" fill="url(#gradient5)" fill-rule="evenodd" stroke="none"/>
    <path d="M218.3 19.55 L214.55 19.55 215.25 19.35 Q217.65 18.45 217.65 17.2 L217.65 2.25 Q217.65 1.0 215.25 0.15 L214.9 0.0 218.5 0.0 Q220.35 1.0 220.4 2.25 L220.4 17.2 Q220.35 18.55 218.3 19.55" fill="url(#gradient6)" fill-rule="evenodd" stroke="none"/>
    <path d="M58.8 0.25 L209.4 0.25 Q211.7 0.25 213.3 0.85 214.9 1.4 214.9 2.25 L214.9 17.2 Q214.9 18.05 213.3 18.65 L209.4 19.2 58.8 19.2 58.8 18.2 209.4 18.2 211.35 17.9 Q212.15 17.6 212.15 17.2 L212.15 2.25 Q212.15 1.85 211.35 1.55 L209.4 1.25 58.8 1.25 58.8 0.25" fill="url(#gradient7)" fill-rule="evenodd" stroke="none"/>
    <path d="M214.55 19.55 L58.8 19.55 58.8 19.2 209.4 19.2 213.3 18.65 Q214.9 18.05 214.9 17.2 L214.9 2.25 Q214.9 1.4 213.3 0.85 211.7 0.25 209.4 0.25 L58.8 0.25 58.8 0.0 214.9 0.0 215.25 0.15 Q217.65 1.0 217.65 2.25 L217.65 17.2 Q217.65 18.45 215.25 19.35 L214.55 19.55" fill="url(#gradient8)" fill-rule="evenodd" stroke="none"/>
    <path d="M58.8 1.25 L209.4 1.25 211.35 1.55 Q212.15 1.85 212.15 2.25 L212.15 17.2 Q212.15 17.6 211.35 17.9 L209.4 18.2 58.8 18.2 58.8 1.25" fill="url(#gradient9)" fill-rule="evenodd" stroke="none"/>
    <path d="M58.8 19.55 L9.4 19.55 8.65 18.8 1.25 11.25 0.85 10.6 0.85 8.85 Q0.8 8.7 1.25 8.2 L8.65 0.65 9.3 0.0 58.8 0.0 58.8 0.25 10.05 0.25 8.65 1.5 1.8 7.85 1.35 8.5 1.35 10.95 1.8 11.6 8.65 17.9 10.05 19.2 58.8 19.2 58.8 19.55" fill="url(#gradient10)" fill-rule="evenodd" stroke="none"/>
    <path d="M58.8 0.25 L58.8 1.25 10.05 1.25 8.65 2.4 3.25 6.85 2.55 7.65 2.55 11.85 3.25 12.6 8.65 17.05 10.05 18.2 58.8 18.2 58.8 19.2 10.05 19.2 8.65 17.9 1.8 11.6 1.35 10.95 1.35 8.5 1.8 7.85 8.65 1.5 10.05 0.25 58.8 0.25" fill="url(#gradient11)" fill-rule="evenodd" stroke="none"/>
    <path d="M58.8 1.25 L58.8 18.2 10.05 18.2 8.65 17.05 3.25 12.6 2.55 11.85 2.55 7.65 3.25 6.85 8.65 2.4 10.05 1.25 58.8 1.25" fill="url(#gradient12)" fill-rule="evenodd" stroke="none"/>
    <path d="M9.4 19.55 L8.55 19.55 0.9 11.0 0.55 10.45 0.55 9.05 0.9 8.45 8.45 0.0 9.3 0.0 8.65 0.65 1.25 8.2 Q0.8 8.7 0.85 8.85 L0.85 10.6 1.25 11.25 8.65 18.8 9.4 19.55" fill="url(#gradient13)" fill-rule="evenodd" stroke="none"/>
    <path d="M8.55 19.55 L7.85 19.55 0.65 10.85 Q0.35 10.45 0.4 10.3 L0.4 9.15 Q0.35 9.0 0.65 8.6 L7.75 0.0 8.45 0.0 0.9 8.45 0.55 9.05 0.55 10.45 0.9 11.0 8.55 19.55" fill="url(#gradient14)" fill-rule="evenodd" stroke="none"/>
    <path d="M5.85 19.55 L5.5 19.55 0.15 10.55 0.0 10.05 0.0 9.45 0.15 8.95 5.45 0.0 5.8 0.0 0.25 8.9 0.05 9.4 0.05 10.05 0.25 10.55 5.85 19.55" fill="url(#gradient15)" fill-rule="evenodd" stroke="none"/>
    <path d="M6.25 19.55 L5.85 19.55 0.25 10.55 0.05 10.05 0.05 9.4 0.25 8.9 5.8 0.0 6.2 0.0 0.3 8.85 0.1 9.35 0.1 10.1 0.3 10.6 6.25 19.55" fill="url(#gradient16)" fill-rule="evenodd" stroke="none"/>
    <path d="M7.25 19.55 L6.7 19.55 0.4 10.7 0.2 10.15 0.2 9.3 Q0.15 9.15 0.4 8.8 L6.65 0.0 7.15 0.0 0.5 8.7 0.25 9.25 0.25 10.2 0.5 10.75 7.25 19.55" fill="url(#gradient17)" fill-rule="evenodd" stroke="none"/>
    <path d="M6.7 19.55 L6.25 19.55 0.3 10.6 0.1 10.1 0.1 9.35 0.3 8.85 6.2 0.0 6.65 0.0 0.4 8.8 Q0.15 9.15 0.2 9.3 L0.2 10.15 0.4 10.7 6.7 19.55" fill="url(#gradient18)" fill-rule="evenodd" stroke="none"/>
    <path d="M7.85 19.55 L7.25 19.55 0.5 10.75 0.25 10.2 0.25 9.25 0.5 8.7 7.15 0.0 7.75 0.0 0.65 8.6 Q0.35 9.0 0.4 9.15 L0.4 10.3 Q0.35 10.45 0.65 10.85 L7.85 19.55" fill="url(#gradient19)" fill-rule="evenodd" stroke="none"/>
  </g>
  <defs>
    <linearGradient gradientTransform="matrix(0.0, 0.0116, -0.2496, 0.0, 129.15, 9.1)" gradientUnits="userSpaceOnUse" id="gradient0" spreadMethod="pad" x1="-819.2" x2="819.2">
      <stop offset="0.0" stop-color="#ffffff" stop-opacity="0.0"/>
      <stop offset="0.10196078431372549" stop-color="#5fdefe" stop-opacity="0.09411765"/>
      <stop offset="0.5098039215686274" stop-color="#fff2d5" stop-opacity="0.09411765"/>
      <stop offset="0.9254901960784314" stop-color="#5fdefe" stop-opacity="0.09411765"/>
      <stop offset="1.0" stop-color="#ffffff" stop-opacity="0.0"/>
    </linearGradient>
    <linearGradient gradientTransform="matrix(0.0, 0.0116, -0.2496, 0.0, 129.15, 9.1)" gradientUnits="userSpaceOnUse" id="gradient1" spreadMethod="pad" x1="-819.2" x2="819.2">
      <stop offset="0.0" stop-color="#ffffff" stop-opacity="0.0"/>
      <stop offset="0.10196078431372549" stop-color="#5fdefe" stop-opacity="0.19607843"/>
      <stop offset="0.5098039215686274" stop-color="#fff2d5" stop-opacity="0.19607843"/>
      <stop offset="0.9254901960784314" stop-color="#5fdefe" stop-opacity="0.19607843"/>
      <stop offset="1.0" stop-color="#ffffff" stop-opacity="0.0"/>
    </linearGradient>
    <linearGradient gradientTransform="matrix(0.0, 0.0116, -0.2496, 0.0, 129.15, 9.1)" gradientUnits="userSpaceOnUse" id="gradient2" spreadMethod="pad" x1="-819.2" x2="819.2">
      <stop offset="0.0" stop-color="#ffffff" stop-opacity="0.0"/>
      <stop offset="0.10196078431372549" stop-color="#5fdefe" stop-opacity="0.29411766"/>
      <stop offset="0.5098039215686274" stop-color="#fff2d5" stop-opacity="0.29411766"/>
      <stop offset="0.9254901960784314" stop-color="#5fdefe" stop-opacity="0.29411766"/>
      <stop offset="1.0" stop-color="#ffffff" stop-opacity="0.0"/>
    </linearGradient>
    <linearGradient gradientTransform="matrix(0.0, 0.0116, -0.2496, 0.0, 129.15, 9.1)" gradientUnits="userSpaceOnUse" id="gradient3" spreadMethod="pad" x1="-819.2" x2="819.2">
      <stop offset="0.0" stop-color="#ffffff" stop-opacity="0.0"/>
      <stop offset="0.10196078431372549" stop-color="#5fdefe" stop-opacity="0.39607844"/>
      <stop offset="0.5098039215686274" stop-color="#fff2d5" stop-opacity="0.39607844"/>
      <stop offset="0.9254901960784314" stop-color="#5fdefe" stop-opacity="0.39607844"/>
      <stop offset="1.0" stop-color="#ffffff" stop-opacity="0.0"/>
    </linearGradient>
    <linearGradient gradientTransform="matrix(0.0, 0.0116, -0.2496, 0.0, 129.15, 9.1)" gradientUnits="userSpaceOnUse" id="gradient4" spreadMethod="pad" x1="-819.2" x2="819.2">
      <stop offset="0.0" stop-color="#ffffff" stop-opacity="0.0"/>
      <stop offset="0.10196078431372549" stop-color="#5fdefe" stop-opacity="0.49803922"/>
      <stop offset="0.5098039215686274" stop-color="#fff2d5" stop-opacity="0.49803922"/>
      <stop offset="0.9254901960784314" stop-color="#5fdefe" stop-opacity="0.49803922"/>
      <stop offset="1.0" stop-color="#ffffff" stop-opacity="0.0"/>
    </linearGradient>
    <linearGradient gradientTransform="matrix(0.0, 0.0116, -0.2496, 0.0, 129.15, 9.1)" gradientUnits="userSpaceOnUse" id="gradient5" spreadMethod="pad" x1="-819.2" x2="819.2">
      <stop offset="0.0" stop-color="#ffffff" stop-opacity="0.0"/>
      <stop offset="0.10196078431372549" stop-color="#5fdefe" stop-opacity="0.59607846"/>
      <stop offset="0.5098039215686274" stop-color="#fff2d5" stop-opacity="0.59607846"/>
      <stop offset="0.9254901960784314" stop-color="#5fdefe" stop-opacity="0.59607846"/>
      <stop offset="1.0" stop-color="#ffffff" stop-opacity="0.0"/>
    </linearGradient>
    <linearGradient gradientTransform="matrix(0.0, 0.0116, -0.2496, 0.0, 129.15, 9.1)" gradientUnits="userSpaceOnUse" id="gradient6" spreadMethod="pad" x1="-819.2" x2="819.2">
      <stop offset="0.0" stop-color="#ffffff" stop-opacity="0.0"/>
      <stop offset="0.10196078431372549" stop-color="#5fdefe" stop-opacity="0.69803923"/>
      <stop offset="0.5098039215686274" stop-color="#fff2d5" stop-opacity="0.69803923"/>
      <stop offset="0.9254901960784314" stop-color="#5fdefe" stop-opacity="0.69803923"/>
      <stop offset="1.0" stop-color="#ffffff" stop-opacity="0.0"/>
    </linearGradient>
    <linearGradient gradientTransform="matrix(0.0, 0.0116, -0.2496, 0.0, 129.15, 9.1)" gradientUnits="userSpaceOnUse" id="gradient7" spreadMethod="pad" x1="-819.2" x2="819.2">
      <stop offset="0.0" stop-color="#ffffff" stop-opacity="0.0"/>
      <stop offset="0.10196078431372549" stop-color="#5fdefe" stop-opacity="0.8980392"/>
      <stop offset="0.5098039215686274" stop-color="#fff2d5" stop-opacity="0.8980392"/>
      <stop offset="0.9254901960784314" stop-color="#5fdefe" stop-opacity="0.8980392"/>
      <stop offset="1.0" stop-color="#ffffff" stop-opacity="0.0"/>
    </linearGradient>
    <linearGradient gradientTransform="matrix(0.0, 0.0116, -0.2496, 0.0, 129.15, 9.1)" gradientUnits="userSpaceOnUse" id="gradient8" spreadMethod="pad" x1="-819.2" x2="819.2">
      <stop offset="0.0" stop-color="#ffffff" stop-opacity="0.0"/>
      <stop offset="0.10196078431372549" stop-color="#5fdefe" stop-opacity="0.79607844"/>
      <stop offset="0.5098039215686274" stop-color="#fff2d5" stop-opacity="0.79607844"/>
      <stop offset="0.9254901960784314" stop-color="#5fdefe" stop-opacity="0.79607844"/>
      <stop offset="1.0" stop-color="#ffffff" stop-opacity="0.0"/>
    </linearGradient>
    <linearGradient gradientTransform="matrix(0.0, 0.0116, -0.2496, 0.0, 129.15, 9.1)" gradientUnits="userSpaceOnUse" id="gradient9" spreadMethod="pad" x1="-819.2" x2="819.2">
      <stop offset="0.0" stop-color="#ffffff" stop-opacity="0.0"/>
      <stop offset="0.10196078431372549" stop-color="#5fdefe"/>
      <stop offset="0.5098039215686274" stop-color="#fff2d5"/>
      <stop offset="0.9254901960784314" stop-color="#5fdefe"/>
      <stop offset="1.0" stop-color="#ffffff" stop-opacity="0.0"/>
    </linearGradient>
    <linearGradient gradientTransform="matrix(0.0, 0.0116, -0.0908, 0.0, 84.4, 9.1)" gradientUnits="userSpaceOnUse" id="gradient10" spreadMethod="pad" x1="-819.2" x2="819.2">
      <stop offset="0.0" stop-color="#ffffff" stop-opacity="0.0"/>
      <stop offset="0.10196078431372549" stop-color="#5fdefe" stop-opacity="0.79607844"/>
      <stop offset="0.5098039215686274" stop-color="#fff2d5" stop-opacity="0.79607844"/>
      <stop offset="0.9254901960784314" stop-color="#5fdefe" stop-opacity="0.79607844"/>
      <stop offset="1.0" stop-color="#ffffff" stop-opacity="0.0"/>
    </linearGradient>
    <linearGradient gradientTransform="matrix(0.0, 0.0116, -0.0908, 0.0, 84.4, 9.1)" gradientUnits="userSpaceOnUse" id="gradient11" spreadMethod="pad" x1="-819.2" x2="819.2">
      <stop offset="0.0" stop-color="#ffffff" stop-opacity="0.0"/>
      <stop offset="0.10196078431372549" stop-color="#5fdefe" stop-opacity="0.8980392"/>
      <stop offset="0.5098039215686274" stop-color="#fff2d5" stop-opacity="0.8980392"/>
      <stop offset="0.9254901960784314" stop-color="#5fdefe" stop-opacity="0.8980392"/>
      <stop offset="1.0" stop-color="#ffffff" stop-opacity="0.0"/>
    </linearGradient>
    <linearGradient gradientTransform="matrix(0.0, 0.0116, -0.0908, 0.0, 84.4, 9.1)" gradientUnits="userSpaceOnUse" id="gradient12" spreadMethod="pad" x1="-819.2" x2="819.2">
      <stop offset="0.0" stop-color="#ffffff" stop-opacity="0.0"/>
      <stop offset="0.10196078431372549" stop-color="#5fdefe"/>
      <stop offset="0.5098039215686274" stop-color="#fff2d5"/>
      <stop offset="0.9254901960784314" stop-color="#5fdefe"/>
      <stop offset="1.0" stop-color="#ffffff" stop-opacity="0.0"/>
    </linearGradient>
    <linearGradient gradientTransform="matrix(0.0, 0.0116, -0.0908, 0.0, 84.4, 9.1)" gradientUnits="userSpaceOnUse" id="gradient13" spreadMethod="pad" x1="-819.2" x2="819.2">
      <stop offset="0.0" stop-color="#ffffff" stop-opacity="0.0"/>
      <stop offset="0.10196078431372549" stop-color="#5fdefe" stop-opacity="0.69803923"/>
      <stop offset="0.5098039215686274" stop-color="#fff2d5" stop-opacity="0.69803923"/>
      <stop offset="0.9254901960784314" stop-color="#5fdefe" stop-opacity="0.69803923"/>
      <stop offset="1.0" stop-color="#ffffff" stop-opacity="0.0"/>
    </linearGradient>
    <linearGradient gradientTransform="matrix(0.0, 0.0116, -0.0908, 0.0, 84.4, 9.1)" gradientUnits="userSpaceOnUse" id="gradient14" spreadMethod="pad" x1="-819.2" x2="819.2">
      <stop offset="0.0" stop-color="#ffffff" stop-opacity="0.0"/>
      <stop offset="0.10196078431372549" stop-color="#5fdefe" stop-opacity="0.59607846"/>
      <stop offset="0.5098039215686274" stop-color="#fff2d5" stop-opacity="0.59607846"/>
      <stop offset="0.9254901960784314" stop-color="#5fdefe" stop-opacity="0.59607846"/>
      <stop offset="1.0" stop-color="#ffffff" stop-opacity="0.0"/>
    </linearGradient>
    <linearGradient gradientTransform="matrix(0.0, 0.0116, -0.0908, 0.0, 84.4, 9.1)" gradientUnits="userSpaceOnUse" id="gradient15" spreadMethod="pad" x1="-819.2" x2="819.2">
      <stop offset="0.0" stop-color="#ffffff" stop-opacity="0.0"/>
      <stop offset="0.10196078431372549" stop-color="#5fdefe" stop-opacity="0.09411765"/>
      <stop offset="0.5098039215686274" stop-color="#fff2d5" stop-opacity="0.09411765"/>
      <stop offset="0.9254901960784314" stop-color="#5fdefe" stop-opacity="0.09411765"/>
      <stop offset="1.0" stop-color="#ffffff" stop-opacity="0.0"/>
    </linearGradient>
    <linearGradient gradientTransform="matrix(0.0, 0.0116, -0.0908, 0.0, 84.4, 9.1)" gradientUnits="userSpaceOnUse" id="gradient16" spreadMethod="pad" x1="-819.2" x2="819.2">
      <stop offset="0.0" stop-color="#ffffff" stop-opacity="0.0"/>
      <stop offset="0.10196078431372549" stop-color="#5fdefe" stop-opacity="0.19607843"/>
      <stop offset="0.5098039215686274" stop-color="#fff2d5" stop-opacity="0.19607843"/>
      <stop offset="0.9254901960784314" stop-color="#5fdefe" stop-opacity="0.19607843"/>
      <stop offset="1.0" stop-color="#ffffff" stop-opacity="0.0"/>
    </linearGradient>
    <linearGradient gradientTransform="matrix(0.0, 0.0116, -0.0908, 0.0, 84.4, 9.1)" gradientUnits="userSpaceOnUse" id="gradient17" spreadMethod="pad" x1="-819.2" x2="819.2">
      <stop offset="0.0" stop-color="#ffffff" stop-opacity="0.0"/>
      <stop offset="0.10196078431372549" stop-color="#5fdefe" stop-opacity="0.39607844"/>
      <stop offset="0.5098039215686274" stop-color="#fff2d5" stop-opacity="0.39607844"/>
      <stop offset="0.9254901960784314" stop-color="#5fdefe" stop-opacity="0.39607844"/>
      <stop offset="1.0" stop-color="#ffffff" stop-opacity="0.0"/>
    </linearGradient>
    <linearGradient gradientTransform="matrix(0.0, 0.0116, -0.0908, 0.0, 84.4, 9.1)" gradientUnits="userSpaceOnUse" id="gradient18" spreadMethod="pad" x1="-819.2" x2="819.2">
      <stop offset="0.0" stop-color="#ffffff" stop-opacity="0.0"/>
      <stop offset="0.10196078431372549" stop-color="#5fdefe" stop-opacity="0.29411766"/>
      <stop offset="0.5098039215686274" stop-color="#fff2d5" stop-opacity="0.29411766"/>
      <stop offset="0.9254901960784314" stop-color="#5fdefe" stop-opacity="0.29411766"/>
      <stop offset="1.0" stop-color="#ffffff" stop-opacity="0.0"/>
    </linearGradient>
    <linearGradient gradientTransform="matrix(0.0, 0.0116, -0.0908, 0.0, 84.4, 9.1)" gradientUnits="userSpaceOnUse" id="gradient19" spreadMethod="pad" x1="-819.2" x2="819.2">
      <stop offset="0.0" stop-color="#ffffff" stop-opacity="0.0"/>
      <stop offset="0.10196078431372549" stop-color="#5fdefe" stop-opacity="0.49803922"/>
      <stop offset="0.5098039215686274" stop-color="#fff2d5" stop-opacity="0.49803922"/>
      <stop offset="0.9254901960784314" stop-color="#5fdefe" stop-opacity="0.49803922"/>
      <stop offset="1.0" stop-color="#ffffff" stop-opacity="0.0"/>
    </linearGradient>
  </defs>
</svg>
